<?xml version="1.0" standalone="no"?>
<!DOCTYPE svg PUBLIC "-//W3C//DTD SVG 20010904//EN"
 "http://www.w3.org/TR/2001/REC-SVG-20010904/DTD/svg10.dtd">
<svg version="1.0" xmlns="http://www.w3.org/2000/svg"
 width="384.000000pt" height="384.000000pt" viewBox="0 0 384.000000 384.000000"
 preserveAspectRatio="xMidYMid meet">

<g transform="translate(0.000000,384.000000) scale(0.100000,-0.100000)"
fill="#000000" stroke="none">
<path d="M1160 3288 c-58 -39 -126 -197 -164 -380 -24 -118 -22 -346 5 -462
21 -88 52 -163 89 -216 27 -38 14 -94 -23 -98 -53 -6 -71 -67 -41 -141 15 -38
15 -41 -6 -69 -18 -24 -21 -38 -16 -65 9 -46 55 -108 111 -149 26 -18 74 -57
108 -86 33 -29 86 -69 118 -88 l57 -36 -33 -66 c-32 -66 -68 -167 -103 -291
-15 -55 -22 -66 -46 -74 -21 -7 -37 -5 -63 7 -46 22 -111 20 -151 -4 -49 -30
-65 -78 -59 -176 6 -104 48 -198 105 -238 54 -37 167 -59 264 -52 66 6 81 4
112 -15 72 -42 237 -31 308 21 23 17 43 20 129 20 85 0 105 -3 129 -20 73 -52
228 -62 315 -20 33 16 53 19 106 14 77 -8 186 9 240 36 79 41 132 149 133 276
1 72 -2 85 -26 120 -27 39 -27 40 -13 94 19 71 19 141 0 215 -20 74 -52 132
-87 158 -23 17 -31 19 -53 9 -15 -7 -33 -28 -42 -49 -26 -63 -126 -194 -138
-181 -2 2 -21 47 -43 99 l-39 96 36 19 c19 10 54 33 76 50 22 17 69 45 103 64
34 18 80 52 102 76 34 37 40 50 40 88 0 24 -6 48 -14 55 -11 9 -9 19 11 59 15
29 23 60 21 82 -3 29 -9 38 -40 53 -51 25 -52 63 -2 120 158 185 213 604 119
911 -34 110 -55 142 -103 157 -34 10 -45 9 -83 -8 -100 -45 -227 -180 -337
-361 -29 -48 -56 -87 -60 -87 -4 0 -50 11 -102 25 -84 21 -115 24 -265 23 -93
-1 -185 -3 -204 -5 l-33 -3 -49 110 c-66 146 -168 296 -240 352 -71 55 -112
63 -159 31z m116 -37 c58 -42 106 -97 156 -176 43 -68 128 -234 128 -252 0 -4
9 -22 19 -39 l19 -31 78 14 c154 28 410 3 535 -51 13 -6 28 11 69 79 141 233
291 385 381 385 46 0 63 -19 93 -107 65 -192 73 -428 20 -642 -22 -91 -84
-220 -128 -269 -36 -39 -37 -42 -34 -109 l3 -68 35 0 c24 0 36 -5 38 -17 4
-19 -30 -89 -52 -107 -23 -19 -20 -40 9 -51 30 -11 32 -31 6 -54 -11 -10 -18
-23 -15 -30 3 -8 -5 -12 -23 -11 -15 1 -40 -3 -55 -8 -24 -8 -26 -13 -22 -40
4 -25 3 -28 -5 -17 -9 13 -11 13 -11 -2 0 -17 -67 -69 -152 -117 -76 -43 -218
-87 -325 -102 -51 -7 -93 -17 -93 -22 0 -15 209 -1 259 17 24 9 55 16 68 16
22 0 23 -1 9 -16 -22 -22 -20 -24 13 -14 29 8 30 7 59 -63 29 -69 72 -211 72
-235 0 -7 -7 -12 -15 -12 -30 0 -14 -21 32 -41 26 -11 49 -22 51 -24 2 -1 -9
-27 -24 -56 -20 -37 -29 -71 -31 -113 l-3 -61 24 73 c40 121 101 182 184 182
112 0 145 -145 67 -300 -49 -96 -100 -120 -255 -120 -104 0 -110 1 -110 20 0
11 -19 41 -41 65 l-42 45 31 123 c31 121 55 324 40 333 -11 7 -13 -1 -38 -136
-12 -63 -33 -164 -48 -223 l-26 -108 36 -33 c46 -42 55 -71 32 -97 -23 -26
-27 -24 -43 14 l-14 32 -6 -35 c-6 -34 -8 -35 -53 -38 -41 -3 -48 0 -48 16 0
10 -7 27 -15 38 -14 18 -14 17 -15 -13 0 -39 -14 -42 -70 -13 -45 23 -65 72
-74 183 -5 64 6 92 17 45 4 -13 13 -32 22 -43 14 -18 15 -14 10 55 -3 41 -2
126 2 188 l8 114 -22 -29 c-13 -15 -29 -35 -37 -43 -39 -44 -52 -307 -20 -417
6 -22 4 -23 -71 -23 l-78 0 7 38 c26 143 12 351 -27 404 -11 15 -25 24 -30 21
-6 -3 -7 -1 -4 4 4 6 -1 17 -10 24 -15 13 -16 9 -10 -50 4 -35 7 -116 8 -180
0 -96 2 -112 12 -91 26 55 37 55 37 -2 0 -65 -23 -153 -46 -179 -18 -20 -82
-45 -91 -35 -3 3 -5 17 -5 31 0 36 -15 31 -29 -10 -12 -32 -16 -35 -55 -35
-36 0 -43 3 -48 25 -4 14 -4 30 -1 35 4 6 2 10 -3 10 -6 0 -15 -14 -21 -31 -9
-26 -13 -29 -30 -20 -10 6 -21 16 -24 23 -7 20 19 64 53 90 l30 24 -29 119
c-16 66 -39 173 -51 238 -27 138 -46 157 -36 35 10 -118 21 -180 49 -287 l26
-94 -35 -32 c-19 -18 -39 -47 -45 -65 l-12 -32 -121 4 c-99 3 -127 8 -156 24
-69 40 -120 152 -120 263 0 62 19 103 55 119 93 43 205 -40 236 -176 16 -68
34 -68 25 -1 -7 50 -40 134 -57 145 -18 11 -8 23 29 35 20 6 46 18 57 26 20
13 20 14 -3 19 -15 4 -21 12 -18 23 3 9 12 45 22 81 28 107 87 235 106 232 12
-2 15 3 11 19 -7 25 1 24 122 -10 76 -21 160 -28 150 -11 -3 6 -16 10 -28 10
-26 0 -152 40 -220 69 -68 29 -173 100 -236 160 -30 28 -58 51 -62 51 -5 0 -5
7 -2 17 4 11 3 14 -5 9 -7 -4 -12 -3 -12 2 0 6 7 12 15 16 26 10 6 38 -22 31
-14 -3 -22 -2 -19 3 3 5 -6 14 -19 20 -27 13 -32 4 -12 -18 10 -12 9 -12 -6 0
-10 7 -16 19 -13 26 2 6 -2 20 -9 31 -23 29 -19 53 9 53 37 0 40 15 12 57 -48
76 -43 145 10 121 13 -6 27 -9 30 -6 3 3 10 36 15 73 10 61 9 69 -9 88 -127
139 -148 571 -42 845 72 185 116 222 196 163z m1408 -1833 c32 -66 49 -180 37
-245 -15 -78 -16 -78 -74 -77 -28 0 -64 -6 -79 -13 -63 -31 -83 -16 -108 81
l-21 78 56 59 c30 33 67 86 82 117 14 31 31 60 37 64 18 12 44 -11 70 -64z"/>
<path d="M1140 3086 c0 -7 7 -19 15 -26 17 -14 13 -77 -7 -115 -7 -12 -11 -94
-12 -215 0 -238 1 -253 19 -296 21 -51 37 -43 29 14 -7 54 3 68 51 74 29 3 30
4 30 56 0 41 4 57 19 68 25 18 34 18 70 -1 45 -23 53 -6 32 62 -32 104 -133
299 -179 348 -44 46 -67 56 -67 31z"/>
<path d="M2675 2982 c-17 -10 -45 -35 -63 -56 -31 -35 -132 -182 -132 -192 0
-3 -18 -36 -40 -75 -22 -39 -37 -75 -34 -80 3 -5 27 -7 53 -3 60 8 86 -13 77
-60 -13 -65 -12 -71 14 -74 44 -7 53 -21 46 -79 -4 -32 -2 -53 4 -53 13 0 32
37 41 80 4 19 14 62 23 95 30 124 39 204 33 312 -3 59 -8 115 -12 123 -3 9 3
25 15 37 20 22 26 43 13 43 -5 0 -22 -8 -38 -18z"/>
<path d="M1461 2285 c-38 -33 -66 -112 -56 -163 20 -108 104 -150 174 -88 69
62 69 211 -1 260 -34 24 -82 20 -117 -9z m117 -57 c17 -17 15 -74 -4 -92 -12
-12 -20 -13 -35 -6 -34 19 -21 110 16 110 6 0 16 -5 23 -12z"/>
<path d="M2215 2164 c-39 -20 -83 -62 -101 -95 -20 -39 -2 -50 57 -37 36 8 57
7 98 -5 48 -14 52 -14 49 1 -2 10 -27 29 -56 43 l-53 26 33 16 c18 9 52 21 76
27 23 6 42 15 42 19 0 25 -100 28 -145 5z"/>
<path d="M1764 2041 c-12 -5 -24 -16 -27 -25 -8 -20 34 -70 73 -86 24 -10 29
-17 24 -34 -13 -43 -45 -66 -91 -66 -44 0 -70 17 -100 66 -11 18 -12 18 -12
-4 -1 -27 13 -56 40 -83 10 -10 19 -26 19 -34 0 -9 9 -34 20 -56 54 -106 200
-114 271 -16 16 22 29 45 29 52 0 6 14 24 30 39 30 26 56 74 46 84 -3 2 -21
-12 -40 -33 -33 -35 -39 -37 -78 -32 -77 10 -123 98 -58 112 73 16 105 80 53
105 -34 16 -170 23 -199 11z m164 -20 c11 -6 10 -10 -4 -15 -23 -9 -124 4
-124 15 0 11 111 11 128 0z m-53 -291 c4 -6 10 -8 14 -6 11 7 36 -12 28 -21
-5 -4 -12 -2 -16 6 -5 7 -10 12 -12 11 -4 -1 -11 1 -49 13 -10 4 -7 6 7 6 12
1 25 -4 28 -9z"/>
<path d="M3160 2951 c-132 -42 -203 -172 -155 -287 10 -25 12 -42 5 -60 -12
-30 -13 -74 -2 -74 4 0 26 5 49 10 31 7 50 6 77 -5 100 -42 232 16 271 120 26
66 17 153 -21 207 -46 66 -157 110 -224 89z m114 -45 c37 -15 76 -46 76 -59 0
-5 -14 3 -30 17 -45 37 -131 47 -205 21 -11 -3 -4 3 15 14 41 24 97 27 144 7z
m7 -117 c16 -26 9 -45 -30 -83 -42 -41 -46 -41 -93 3 -29 27 -37 68 -17 88 16
16 129 10 140 -8z"/>
</g>
</svg>
